<mxfile host="65bd71144e">
    <diagram id="PcXh47fKkMYi6BAv5knd" name="方案1">
        <mxGraphModel dx="1691" dy="719" grid="1" gridSize="10" guides="1" tooltips="1" connect="1" arrows="1" fold="1" page="1" pageScale="1" pageWidth="827" pageHeight="1169" math="0" shadow="0">
            <root>
                <mxCell id="0"/>
                <mxCell id="1" parent="0"/>
                <mxCell id="2" value="region_start_key[0] |&amp;nbsp;" style="whiteSpace=wrap;html=1;" vertex="1" parent="1">
                    <mxGeometry x="62" y="120" width="120" height="60" as="geometry"/>
                </mxCell>
                <mxCell id="3" value="&lt;span style=&quot;color: rgb(240, 240, 240); font-family: Helvetica; font-size: 12px; font-style: normal; font-variant-ligatures: normal; font-variant-caps: normal; font-weight: 400; letter-spacing: normal; orphans: 2; text-align: center; text-indent: 0px; text-transform: none; widows: 2; word-spacing: 0px; -webkit-text-stroke-width: 0px; background-color: rgb(42, 37, 47); text-decoration-thickness: initial; text-decoration-style: initial; text-decoration-color: initial; float: none; display: inline !important;&quot;&gt;region_part_id&amp;nbsp;&lt;/span&gt;" style="whiteSpace=wrap;html=1;" vertex="1" parent="1">
                    <mxGeometry x="182" y="120" width="108" height="60" as="geometry"/>
                </mxCell>
                <mxCell id="4" value="0" style="whiteSpace=wrap;html=1;" vertex="1" parent="1">
                    <mxGeometry x="290" y="120" width="48" height="60" as="geometry"/>
                </mxCell>
                <mxCell id="5" value="key" style="text;strokeColor=none;align=center;fillColor=none;html=1;verticalAlign=middle;whiteSpace=wrap;rounded=0;" vertex="1" parent="1">
                    <mxGeometry x="2" y="140" width="60" height="30" as="geometry"/>
                </mxCell>
                <mxCell id="6" value="&lt;div style=&quot;text-align: start;&quot;&gt;vector_id&lt;/div&gt;" style="whiteSpace=wrap;html=1;" vertex="1" parent="1">
                    <mxGeometry x="338" y="120" width="82" height="60" as="geometry"/>
                </mxCell>
                <mxCell id="7" value="&lt;div style=&quot;text-align: start;&quot;&gt;ScalarKeyList.SerializeAsString()&lt;/div&gt;" style="whiteSpace=wrap;html=1;" vertex="1" parent="1">
                    <mxGeometry x="605" y="120" width="220" height="60" as="geometry"/>
                </mxCell>
                <mxCell id="9" value="value" style="text;strokeColor=none;align=center;fillColor=none;html=1;verticalAlign=middle;whiteSpace=wrap;rounded=0;" vertex="1" parent="1">
                    <mxGeometry x="545" y="135" width="60" height="30" as="geometry"/>
                </mxCell>
                <mxCell id="10" value="region_start_key[0] |&amp;nbsp;" style="whiteSpace=wrap;html=1;" vertex="1" parent="1">
                    <mxGeometry x="62" y="240" width="120" height="60" as="geometry"/>
                </mxCell>
                <mxCell id="11" value="&lt;span style=&quot;color: rgb(240, 240, 240); font-family: Helvetica; font-size: 12px; font-style: normal; font-variant-ligatures: normal; font-variant-caps: normal; font-weight: 400; letter-spacing: normal; orphans: 2; text-align: center; text-indent: 0px; text-transform: none; widows: 2; word-spacing: 0px; -webkit-text-stroke-width: 0px; background-color: rgb(42, 37, 47); text-decoration-thickness: initial; text-decoration-style: initial; text-decoration-color: initial; float: none; display: inline !important;&quot;&gt;region_part_id&amp;nbsp;&lt;/span&gt;" style="whiteSpace=wrap;html=1;" vertex="1" parent="1">
                    <mxGeometry x="182" y="240" width="120" height="60" as="geometry"/>
                </mxCell>
                <mxCell id="12" value="1" style="whiteSpace=wrap;html=1;" vertex="1" parent="1">
                    <mxGeometry x="290" y="240" width="50" height="60" as="geometry"/>
                </mxCell>
                <mxCell id="13" value="&lt;div style=&quot;text-align: start;&quot;&gt;vector_id&lt;/div&gt;" style="whiteSpace=wrap;html=1;" vertex="1" parent="1">
                    <mxGeometry x="340" y="240" width="80" height="60" as="geometry"/>
                </mxCell>
                <mxCell id="14" value="&lt;div style=&quot;text-align: start;&quot;&gt;ScalarValue.SerializeAsString()&lt;/div&gt;" style="whiteSpace=wrap;html=1;" vertex="1" parent="1">
                    <mxGeometry x="605" y="240" width="220" height="60" as="geometry"/>
                </mxCell>
                <mxCell id="15" value="value" style="text;strokeColor=none;align=center;fillColor=none;html=1;verticalAlign=middle;whiteSpace=wrap;rounded=0;" vertex="1" parent="1">
                    <mxGeometry x="545" y="255" width="60" height="30" as="geometry"/>
                </mxCell>
                <mxCell id="16" value="key" style="text;strokeColor=none;align=center;fillColor=none;html=1;verticalAlign=middle;whiteSpace=wrap;rounded=0;" vertex="1" parent="1">
                    <mxGeometry x="2" y="255" width="60" height="30" as="geometry"/>
                </mxCell>
                <mxCell id="17" value="&lt;div style=&quot;text-align: start;&quot;&gt;key1&lt;/div&gt;" style="whiteSpace=wrap;html=1;" vertex="1" parent="1">
                    <mxGeometry x="420" y="240" width="80" height="60" as="geometry"/>
                </mxCell>
                <mxCell id="18" value="region_start_key[0] |&amp;nbsp;" style="whiteSpace=wrap;html=1;" vertex="1" parent="1">
                    <mxGeometry x="64" y="360" width="120" height="60" as="geometry"/>
                </mxCell>
                <mxCell id="19" value="&lt;span style=&quot;color: rgb(240, 240, 240); font-family: Helvetica; font-size: 12px; font-style: normal; font-variant-ligatures: normal; font-variant-caps: normal; font-weight: 400; letter-spacing: normal; orphans: 2; text-align: center; text-indent: 0px; text-transform: none; widows: 2; word-spacing: 0px; -webkit-text-stroke-width: 0px; background-color: rgb(42, 37, 47); text-decoration-thickness: initial; text-decoration-style: initial; text-decoration-color: initial; float: none; display: inline !important;&quot;&gt;region_part_id&amp;nbsp;&lt;/span&gt;" style="whiteSpace=wrap;html=1;" vertex="1" parent="1">
                    <mxGeometry x="184" y="360" width="108" height="60" as="geometry"/>
                </mxCell>
                <mxCell id="20" value="2" style="whiteSpace=wrap;html=1;" vertex="1" parent="1">
                    <mxGeometry x="292" y="360" width="48" height="60" as="geometry"/>
                </mxCell>
                <mxCell id="21" value="key" style="text;strokeColor=none;align=center;fillColor=none;html=1;verticalAlign=middle;whiteSpace=wrap;rounded=0;" vertex="1" parent="1">
                    <mxGeometry x="4" y="380" width="60" height="30" as="geometry"/>
                </mxCell>
                <mxCell id="22" value="&lt;div style=&quot;text-align: start;&quot;&gt;vector_id&lt;/div&gt;" style="whiteSpace=wrap;html=1;" vertex="1" parent="1">
                    <mxGeometry x="340" y="360" width="82" height="60" as="geometry"/>
                </mxCell>
                <mxCell id="23" value="&lt;div style=&quot;text-align: start;&quot;&gt;VectorScalardata.SerializeAsString()&lt;/div&gt;" style="whiteSpace=wrap;html=1;" vertex="1" parent="1">
                    <mxGeometry x="607" y="360" width="220" height="60" as="geometry"/>
                </mxCell>
                <mxCell id="24" value="value" style="text;strokeColor=none;align=center;fillColor=none;html=1;verticalAlign=middle;whiteSpace=wrap;rounded=0;" vertex="1" parent="1">
                    <mxGeometry x="547" y="375" width="60" height="30" as="geometry"/>
                </mxCell>
                <mxCell id="25" value="1.key list 全部key" style="text;strokeColor=none;align=left;fillColor=none;html=1;verticalAlign=middle;whiteSpace=wrap;rounded=0;" vertex="1" parent="1">
                    <mxGeometry x="64" y="89" width="176" height="30" as="geometry"/>
                </mxCell>
                <mxCell id="26" value="2.加速key" style="text;strokeColor=none;align=left;fillColor=none;html=1;verticalAlign=middle;whiteSpace=wrap;rounded=0;" vertex="1" parent="1">
                    <mxGeometry x="62" y="210" width="176" height="30" as="geometry"/>
                </mxCell>
                <mxCell id="27" value="3.其他key" style="text;strokeColor=none;align=left;fillColor=none;html=1;verticalAlign=middle;whiteSpace=wrap;rounded=0;" vertex="1" parent="1">
                    <mxGeometry x="64" y="330" width="176" height="30" as="geometry"/>
                </mxCell>
            </root>
        </mxGraphModel>
    </diagram>
    <diagram name="方案2" id="zUaV41PSjHH7Q_ymLax-">
        <mxGraphModel dx="1512" dy="719" grid="1" gridSize="10" guides="1" tooltips="1" connect="1" arrows="1" fold="1" page="1" pageScale="1" pageWidth="827" pageHeight="1169" math="0" shadow="0">
            <root>
                <mxCell id="mKjmmqImHPe23hxTloFh-0"/>
                <mxCell id="mKjmmqImHPe23hxTloFh-1" parent="mKjmmqImHPe23hxTloFh-0"/>
                <mxCell id="mKjmmqImHPe23hxTloFh-2" value="region_start_key[0] |&amp;nbsp;" style="whiteSpace=wrap;html=1;" vertex="1" parent="mKjmmqImHPe23hxTloFh-1">
                    <mxGeometry x="70" y="119" width="120" height="60" as="geometry"/>
                </mxCell>
                <mxCell id="mKjmmqImHPe23hxTloFh-3" value="&lt;span style=&quot;color: rgb(240, 240, 240); font-family: Helvetica; font-size: 12px; font-style: normal; font-variant-ligatures: normal; font-variant-caps: normal; font-weight: 400; letter-spacing: normal; orphans: 2; text-align: center; text-indent: 0px; text-transform: none; widows: 2; word-spacing: 0px; -webkit-text-stroke-width: 0px; background-color: rgb(42, 37, 47); text-decoration-thickness: initial; text-decoration-style: initial; text-decoration-color: initial; float: none; display: inline !important;&quot;&gt;region_part_id&amp;nbsp;&lt;/span&gt;" style="whiteSpace=wrap;html=1;" vertex="1" parent="mKjmmqImHPe23hxTloFh-1">
                    <mxGeometry x="182" y="120" width="108" height="60" as="geometry"/>
                </mxCell>
                <mxCell id="mKjmmqImHPe23hxTloFh-4" value="0" style="whiteSpace=wrap;html=1;" vertex="1" parent="mKjmmqImHPe23hxTloFh-1">
                    <mxGeometry x="290" y="120" width="48" height="60" as="geometry"/>
                </mxCell>
                <mxCell id="mKjmmqImHPe23hxTloFh-5" value="key" style="text;strokeColor=none;align=center;fillColor=none;html=1;verticalAlign=middle;whiteSpace=wrap;rounded=0;" vertex="1" parent="mKjmmqImHPe23hxTloFh-1">
                    <mxGeometry x="2" y="140" width="60" height="30" as="geometry"/>
                </mxCell>
                <mxCell id="mKjmmqImHPe23hxTloFh-6" value="&lt;div style=&quot;text-align: start;&quot;&gt;vector_id&lt;/div&gt;" style="whiteSpace=wrap;html=1;" vertex="1" parent="mKjmmqImHPe23hxTloFh-1">
                    <mxGeometry x="338" y="120" width="82" height="60" as="geometry"/>
                </mxCell>
                <mxCell id="mKjmmqImHPe23hxTloFh-7" value="&lt;div style=&quot;text-align: start;&quot;&gt;&lt;br&gt;&lt;/div&gt;" style="whiteSpace=wrap;html=1;" vertex="1" parent="mKjmmqImHPe23hxTloFh-1">
                    <mxGeometry x="605" y="120" width="220" height="60" as="geometry"/>
                </mxCell>
                <mxCell id="mKjmmqImHPe23hxTloFh-8" value="value" style="text;strokeColor=none;align=center;fillColor=none;html=1;verticalAlign=middle;whiteSpace=wrap;rounded=0;" vertex="1" parent="mKjmmqImHPe23hxTloFh-1">
                    <mxGeometry x="545" y="135" width="60" height="30" as="geometry"/>
                </mxCell>
                <mxCell id="mKjmmqImHPe23hxTloFh-9" value="region_start_key[0] |&amp;nbsp;" style="whiteSpace=wrap;html=1;" vertex="1" parent="mKjmmqImHPe23hxTloFh-1">
                    <mxGeometry x="62" y="240" width="120" height="60" as="geometry"/>
                </mxCell>
                <mxCell id="mKjmmqImHPe23hxTloFh-10" value="&lt;span style=&quot;color: rgb(240, 240, 240); font-family: Helvetica; font-size: 12px; font-style: normal; font-variant-ligatures: normal; font-variant-caps: normal; font-weight: 400; letter-spacing: normal; orphans: 2; text-align: center; text-indent: 0px; text-transform: none; widows: 2; word-spacing: 0px; -webkit-text-stroke-width: 0px; background-color: rgb(42, 37, 47); text-decoration-thickness: initial; text-decoration-style: initial; text-decoration-color: initial; float: none; display: inline !important;&quot;&gt;region_part_id&amp;nbsp;&lt;/span&gt;" style="whiteSpace=wrap;html=1;" vertex="1" parent="mKjmmqImHPe23hxTloFh-1">
                    <mxGeometry x="182" y="240" width="120" height="60" as="geometry"/>
                </mxCell>
                <mxCell id="mKjmmqImHPe23hxTloFh-12" value="&lt;div style=&quot;text-align: start;&quot;&gt;vector_id&lt;/div&gt;" style="whiteSpace=wrap;html=1;" vertex="1" parent="mKjmmqImHPe23hxTloFh-1">
                    <mxGeometry x="340" y="240" width="80" height="60" as="geometry"/>
                </mxCell>
                <mxCell id="mKjmmqImHPe23hxTloFh-13" value="&lt;div style=&quot;text-align: start;&quot;&gt;ScalarValue.SerializeAsString()&lt;/div&gt;" style="whiteSpace=wrap;html=1;" vertex="1" parent="mKjmmqImHPe23hxTloFh-1">
                    <mxGeometry x="605" y="240" width="220" height="60" as="geometry"/>
                </mxCell>
                <mxCell id="mKjmmqImHPe23hxTloFh-14" value="value" style="text;strokeColor=none;align=center;fillColor=none;html=1;verticalAlign=middle;whiteSpace=wrap;rounded=0;" vertex="1" parent="mKjmmqImHPe23hxTloFh-1">
                    <mxGeometry x="545" y="255" width="60" height="30" as="geometry"/>
                </mxCell>
                <mxCell id="mKjmmqImHPe23hxTloFh-15" value="key" style="text;strokeColor=none;align=center;fillColor=none;html=1;verticalAlign=middle;whiteSpace=wrap;rounded=0;" vertex="1" parent="mKjmmqImHPe23hxTloFh-1">
                    <mxGeometry x="2" y="255" width="60" height="30" as="geometry"/>
                </mxCell>
                <mxCell id="mKjmmqImHPe23hxTloFh-16" value="&lt;div style=&quot;text-align: start;&quot;&gt;key1&lt;/div&gt;" style="whiteSpace=wrap;html=1;" vertex="1" parent="mKjmmqImHPe23hxTloFh-1">
                    <mxGeometry x="420" y="240" width="80" height="60" as="geometry"/>
                </mxCell>
                <mxCell id="mKjmmqImHPe23hxTloFh-17" value="region_start_key[0] |&amp;nbsp;" style="whiteSpace=wrap;html=1;" vertex="1" parent="mKjmmqImHPe23hxTloFh-1">
                    <mxGeometry x="64" y="360" width="120" height="60" as="geometry"/>
                </mxCell>
                <mxCell id="mKjmmqImHPe23hxTloFh-18" value="&lt;span style=&quot;color: rgb(240, 240, 240); font-family: Helvetica; font-size: 12px; font-style: normal; font-variant-ligatures: normal; font-variant-caps: normal; font-weight: 400; letter-spacing: normal; orphans: 2; text-align: center; text-indent: 0px; text-transform: none; widows: 2; word-spacing: 0px; -webkit-text-stroke-width: 0px; background-color: rgb(42, 37, 47); text-decoration-thickness: initial; text-decoration-style: initial; text-decoration-color: initial; float: none; display: inline !important;&quot;&gt;region_part_id&amp;nbsp;&lt;/span&gt;" style="whiteSpace=wrap;html=1;" vertex="1" parent="mKjmmqImHPe23hxTloFh-1">
                    <mxGeometry x="184" y="360" width="108" height="60" as="geometry"/>
                </mxCell>
                <mxCell id="mKjmmqImHPe23hxTloFh-20" value="key" style="text;strokeColor=none;align=center;fillColor=none;html=1;verticalAlign=middle;whiteSpace=wrap;rounded=0;" vertex="1" parent="mKjmmqImHPe23hxTloFh-1">
                    <mxGeometry x="4" y="380" width="60" height="30" as="geometry"/>
                </mxCell>
                <mxCell id="mKjmmqImHPe23hxTloFh-21" value="&lt;div style=&quot;text-align: start;&quot;&gt;vector_id&lt;/div&gt;" style="whiteSpace=wrap;html=1;" vertex="1" parent="mKjmmqImHPe23hxTloFh-1">
                    <mxGeometry x="340" y="360" width="82" height="60" as="geometry"/>
                </mxCell>
                <mxCell id="mKjmmqImHPe23hxTloFh-22" value="&lt;div style=&quot;text-align: start;&quot;&gt;VectorScalardata.SerializeAsString()&lt;/div&gt;" style="whiteSpace=wrap;html=1;" vertex="1" parent="mKjmmqImHPe23hxTloFh-1">
                    <mxGeometry x="607" y="360" width="220" height="60" as="geometry"/>
                </mxCell>
                <mxCell id="mKjmmqImHPe23hxTloFh-23" value="value" style="text;strokeColor=none;align=center;fillColor=none;html=1;verticalAlign=middle;whiteSpace=wrap;rounded=0;" vertex="1" parent="mKjmmqImHPe23hxTloFh-1">
                    <mxGeometry x="547" y="375" width="60" height="30" as="geometry"/>
                </mxCell>
                <mxCell id="mKjmmqImHPe23hxTloFh-24" value="1.vector_id 索引&amp;nbsp; 作用：scalar 遍历用查找到vector id 加速用" style="text;strokeColor=none;align=left;fillColor=none;html=1;verticalAlign=middle;whiteSpace=wrap;rounded=0;" vertex="1" parent="mKjmmqImHPe23hxTloFh-1">
                    <mxGeometry x="64" y="89" width="336" height="30" as="geometry"/>
                </mxCell>
                <mxCell id="mKjmmqImHPe23hxTloFh-25" value="2.加速key&amp;nbsp; 作用：点查即可" style="text;strokeColor=none;align=left;fillColor=none;html=1;verticalAlign=middle;whiteSpace=wrap;rounded=0;" vertex="1" parent="mKjmmqImHPe23hxTloFh-1">
                    <mxGeometry x="62" y="210" width="176" height="30" as="geometry"/>
                </mxCell>
                <mxCell id="mKjmmqImHPe23hxTloFh-26" value="3.其他key" style="text;strokeColor=none;align=left;fillColor=none;html=1;verticalAlign=middle;whiteSpace=wrap;rounded=0;" vertex="1" parent="mKjmmqImHPe23hxTloFh-1">
                    <mxGeometry x="64" y="330" width="176" height="30" as="geometry"/>
                </mxCell>
            </root>
        </mxGraphModel>
    </diagram>
    <diagram name="方案3" id="1NfLqGiGjYoZMQ8DzHcG">
        <mxGraphModel dx="1691" dy="719" grid="1" gridSize="10" guides="1" tooltips="1" connect="1" arrows="1" fold="1" page="1" pageScale="1" pageWidth="827" pageHeight="1169" math="0" shadow="0">
            <root>
                <mxCell id="sm2qtmSxhqq5CbRJRd5Q-0"/>
                <mxCell id="sm2qtmSxhqq5CbRJRd5Q-1" parent="sm2qtmSxhqq5CbRJRd5Q-0"/>
                <mxCell id="sm2qtmSxhqq5CbRJRd5Q-2" value="region_start_key[0] |&amp;nbsp;" style="whiteSpace=wrap;html=1;" vertex="1" parent="sm2qtmSxhqq5CbRJRd5Q-1">
                    <mxGeometry x="62" y="120" width="120" height="60" as="geometry"/>
                </mxCell>
                <mxCell id="sm2qtmSxhqq5CbRJRd5Q-3" value="&lt;span style=&quot;color: rgb(240, 240, 240); font-family: Helvetica; font-size: 12px; font-style: normal; font-variant-ligatures: normal; font-variant-caps: normal; font-weight: 400; letter-spacing: normal; orphans: 2; text-align: center; text-indent: 0px; text-transform: none; widows: 2; word-spacing: 0px; -webkit-text-stroke-width: 0px; background-color: rgb(42, 37, 47); text-decoration-thickness: initial; text-decoration-style: initial; text-decoration-color: initial; float: none; display: inline !important;&quot;&gt;region_part_id&amp;nbsp;&lt;/span&gt;" style="whiteSpace=wrap;html=1;" vertex="1" parent="sm2qtmSxhqq5CbRJRd5Q-1">
                    <mxGeometry x="182" y="120" width="108" height="60" as="geometry"/>
                </mxCell>
                <mxCell id="sm2qtmSxhqq5CbRJRd5Q-4" value="0" style="whiteSpace=wrap;html=1;" vertex="1" parent="sm2qtmSxhqq5CbRJRd5Q-1">
                    <mxGeometry x="290" y="120" width="48" height="60" as="geometry"/>
                </mxCell>
                <mxCell id="sm2qtmSxhqq5CbRJRd5Q-5" value="key" style="text;strokeColor=none;align=center;fillColor=none;html=1;verticalAlign=middle;whiteSpace=wrap;rounded=0;" vertex="1" parent="sm2qtmSxhqq5CbRJRd5Q-1">
                    <mxGeometry x="2" y="140" width="60" height="30" as="geometry"/>
                </mxCell>
                <mxCell id="sm2qtmSxhqq5CbRJRd5Q-6" value="&lt;div style=&quot;text-align: start;&quot;&gt;vector_id&lt;/div&gt;" style="whiteSpace=wrap;html=1;" vertex="1" parent="sm2qtmSxhqq5CbRJRd5Q-1">
                    <mxGeometry x="338" y="120" width="82" height="60" as="geometry"/>
                </mxCell>
                <mxCell id="sm2qtmSxhqq5CbRJRd5Q-7" value="&lt;div style=&quot;text-align: start;&quot;&gt;ScalarKeyList.SerializeAsString()&lt;br&gt;&lt;/div&gt;" style="whiteSpace=wrap;html=1;" vertex="1" parent="sm2qtmSxhqq5CbRJRd5Q-1">
                    <mxGeometry x="605" y="120" width="220" height="60" as="geometry"/>
                </mxCell>
                <mxCell id="sm2qtmSxhqq5CbRJRd5Q-8" value="value" style="text;strokeColor=none;align=center;fillColor=none;html=1;verticalAlign=middle;whiteSpace=wrap;rounded=0;" vertex="1" parent="sm2qtmSxhqq5CbRJRd5Q-1">
                    <mxGeometry x="545" y="135" width="60" height="30" as="geometry"/>
                </mxCell>
                <mxCell id="sm2qtmSxhqq5CbRJRd5Q-9" value="region_start_key[0] |&amp;nbsp;" style="whiteSpace=wrap;html=1;" vertex="1" parent="sm2qtmSxhqq5CbRJRd5Q-1">
                    <mxGeometry x="62" y="240" width="120" height="60" as="geometry"/>
                </mxCell>
                <mxCell id="sm2qtmSxhqq5CbRJRd5Q-10" value="&lt;span style=&quot;color: rgb(240, 240, 240); font-family: Helvetica; font-size: 12px; font-style: normal; font-variant-ligatures: normal; font-variant-caps: normal; font-weight: 400; letter-spacing: normal; orphans: 2; text-align: center; text-indent: 0px; text-transform: none; widows: 2; word-spacing: 0px; -webkit-text-stroke-width: 0px; background-color: rgb(42, 37, 47); text-decoration-thickness: initial; text-decoration-style: initial; text-decoration-color: initial; float: none; display: inline !important;&quot;&gt;region_part_id&amp;nbsp;&lt;/span&gt;" style="whiteSpace=wrap;html=1;" vertex="1" parent="sm2qtmSxhqq5CbRJRd5Q-1">
                    <mxGeometry x="182" y="240" width="120" height="60" as="geometry"/>
                </mxCell>
                <mxCell id="sm2qtmSxhqq5CbRJRd5Q-11" value="1" style="whiteSpace=wrap;html=1;" vertex="1" parent="sm2qtmSxhqq5CbRJRd5Q-1">
                    <mxGeometry x="290" y="240" width="50" height="60" as="geometry"/>
                </mxCell>
                <mxCell id="sm2qtmSxhqq5CbRJRd5Q-12" value="&lt;span style=&quot;text-align: start;&quot;&gt;key1&lt;br&gt;&lt;/span&gt;" style="whiteSpace=wrap;html=1;" vertex="1" parent="sm2qtmSxhqq5CbRJRd5Q-1">
                    <mxGeometry x="340" y="240" width="80" height="60" as="geometry"/>
                </mxCell>
                <mxCell id="sm2qtmSxhqq5CbRJRd5Q-13" value="&lt;div style=&quot;text-align: start;&quot;&gt;ScalarValue.SerializeAsString()&lt;/div&gt;" style="whiteSpace=wrap;html=1;" vertex="1" parent="sm2qtmSxhqq5CbRJRd5Q-1">
                    <mxGeometry x="605" y="240" width="220" height="60" as="geometry"/>
                </mxCell>
                <mxCell id="sm2qtmSxhqq5CbRJRd5Q-14" value="value" style="text;strokeColor=none;align=center;fillColor=none;html=1;verticalAlign=middle;whiteSpace=wrap;rounded=0;" vertex="1" parent="sm2qtmSxhqq5CbRJRd5Q-1">
                    <mxGeometry x="545" y="255" width="60" height="30" as="geometry"/>
                </mxCell>
                <mxCell id="sm2qtmSxhqq5CbRJRd5Q-15" value="key" style="text;strokeColor=none;align=center;fillColor=none;html=1;verticalAlign=middle;whiteSpace=wrap;rounded=0;" vertex="1" parent="sm2qtmSxhqq5CbRJRd5Q-1">
                    <mxGeometry x="2" y="255" width="60" height="30" as="geometry"/>
                </mxCell>
                <mxCell id="sm2qtmSxhqq5CbRJRd5Q-16" value="&lt;div style=&quot;text-align: start;&quot;&gt;vector_id&lt;br&gt;&lt;/div&gt;" style="whiteSpace=wrap;html=1;" vertex="1" parent="sm2qtmSxhqq5CbRJRd5Q-1">
                    <mxGeometry x="420" y="240" width="80" height="60" as="geometry"/>
                </mxCell>
                <mxCell id="sm2qtmSxhqq5CbRJRd5Q-17" value="region_start_key[0] |&amp;nbsp;" style="whiteSpace=wrap;html=1;" vertex="1" parent="sm2qtmSxhqq5CbRJRd5Q-1">
                    <mxGeometry x="64" y="360" width="120" height="60" as="geometry"/>
                </mxCell>
                <mxCell id="sm2qtmSxhqq5CbRJRd5Q-18" value="&lt;span style=&quot;color: rgb(240, 240, 240); font-family: Helvetica; font-size: 12px; font-style: normal; font-variant-ligatures: normal; font-variant-caps: normal; font-weight: 400; letter-spacing: normal; orphans: 2; text-align: center; text-indent: 0px; text-transform: none; widows: 2; word-spacing: 0px; -webkit-text-stroke-width: 0px; background-color: rgb(42, 37, 47); text-decoration-thickness: initial; text-decoration-style: initial; text-decoration-color: initial; float: none; display: inline !important;&quot;&gt;region_part_id&amp;nbsp;&lt;/span&gt;" style="whiteSpace=wrap;html=1;" vertex="1" parent="sm2qtmSxhqq5CbRJRd5Q-1">
                    <mxGeometry x="184" y="360" width="108" height="60" as="geometry"/>
                </mxCell>
                <mxCell id="sm2qtmSxhqq5CbRJRd5Q-19" value="2" style="whiteSpace=wrap;html=1;" vertex="1" parent="sm2qtmSxhqq5CbRJRd5Q-1">
                    <mxGeometry x="292" y="360" width="48" height="60" as="geometry"/>
                </mxCell>
                <mxCell id="sm2qtmSxhqq5CbRJRd5Q-20" value="key" style="text;strokeColor=none;align=center;fillColor=none;html=1;verticalAlign=middle;whiteSpace=wrap;rounded=0;" vertex="1" parent="sm2qtmSxhqq5CbRJRd5Q-1">
                    <mxGeometry x="4" y="380" width="60" height="30" as="geometry"/>
                </mxCell>
                <mxCell id="sm2qtmSxhqq5CbRJRd5Q-21" value="&lt;div style=&quot;text-align: start;&quot;&gt;vector_id&lt;/div&gt;" style="whiteSpace=wrap;html=1;" vertex="1" parent="sm2qtmSxhqq5CbRJRd5Q-1">
                    <mxGeometry x="340" y="360" width="82" height="60" as="geometry"/>
                </mxCell>
                <mxCell id="sm2qtmSxhqq5CbRJRd5Q-22" value="&lt;div style=&quot;text-align: start;&quot;&gt;VectorScalardata.SerializeAsString()&lt;/div&gt;" style="whiteSpace=wrap;html=1;" vertex="1" parent="sm2qtmSxhqq5CbRJRd5Q-1">
                    <mxGeometry x="607" y="360" width="220" height="60" as="geometry"/>
                </mxCell>
                <mxCell id="sm2qtmSxhqq5CbRJRd5Q-23" value="value" style="text;strokeColor=none;align=center;fillColor=none;html=1;verticalAlign=middle;whiteSpace=wrap;rounded=0;" vertex="1" parent="sm2qtmSxhqq5CbRJRd5Q-1">
                    <mxGeometry x="547" y="375" width="60" height="30" as="geometry"/>
                </mxCell>
                <mxCell id="sm2qtmSxhqq5CbRJRd5Q-24" value="1.key list" style="text;strokeColor=none;align=left;fillColor=none;html=1;verticalAlign=middle;whiteSpace=wrap;rounded=0;" vertex="1" parent="sm2qtmSxhqq5CbRJRd5Q-1">
                    <mxGeometry x="64" y="89" width="336" height="30" as="geometry"/>
                </mxCell>
                <mxCell id="sm2qtmSxhqq5CbRJRd5Q-25" value="2. 加速key&amp;nbsp;" style="text;strokeColor=none;align=left;fillColor=none;html=1;verticalAlign=middle;whiteSpace=wrap;rounded=0;" vertex="1" parent="sm2qtmSxhqq5CbRJRd5Q-1">
                    <mxGeometry x="62" y="210" width="176" height="30" as="geometry"/>
                </mxCell>
                <mxCell id="sm2qtmSxhqq5CbRJRd5Q-26" value="3.其他key" style="text;strokeColor=none;align=left;fillColor=none;html=1;verticalAlign=middle;whiteSpace=wrap;rounded=0;" vertex="1" parent="sm2qtmSxhqq5CbRJRd5Q-1">
                    <mxGeometry x="64" y="330" width="176" height="30" as="geometry"/>
                </mxCell>
            </root>
        </mxGraphModel>
    </diagram>
</mxfile>